%TF.GenerationSoftware,KiCad,Pcbnew,(5.0.0)*%
%TF.CreationDate,2019-07-16T15:39:35+02:00*%
%TF.ProjectId,Gnu_Vario_E_V1.10,476E755F566172696F5F455F56312E31,V 1.10*%
%TF.SameCoordinates,Original*%
%TF.FileFunction,Copper,L2,Bot,Signal*%
%TF.FilePolarity,Positive*%
%FSLAX46Y46*%
G04 Gerber Fmt 4.6, Leading zero omitted, Abs format (unit mm)*
G04 Created by KiCad (PCBNEW (5.0.0)) date 07/16/19 15:39:35*
%MOMM*%
%LPD*%
G01*
G04 APERTURE LIST*
%ADD10C,0.150000*%
%ADD11O,2.000000X3.000000*%
%ADD12O,2.200000X2.000000*%
%ADD13O,2.300000X2.000000*%
%ADD14O,2.000000X2.200000*%
%ADD15O,3.000000X2.000000*%
%ADD16C,0.700000*%
G04 APERTURE END LIST*
D10*
X162700000Y-95300000D02*
X173500000Y-95300000D01*
X162700000Y-108600000D02*
G75*
G02X161700000Y-109600000I-1000000J0D01*
G01*
X176200000Y-109600000D02*
G75*
G02X175300000Y-108700000I0J900000D01*
G01*
X175300000Y-97100000D02*
X175300000Y-108700000D01*
X173500000Y-95300000D02*
X175300000Y-97100000D01*
X162700000Y-95300000D02*
X162700000Y-108600000D01*
X157800000Y-109600000D02*
G75*
G02X156900000Y-108700000I0J900000D01*
G01*
X85500000Y-69900000D02*
X85500000Y-85100000D01*
X102000000Y-100100000D02*
X85500000Y-100100000D01*
X102000000Y-85100000D02*
X102000000Y-100100000D01*
X101000000Y-85100000D02*
X102000000Y-85100000D01*
X101000000Y-85100000D02*
X85500000Y-85100000D01*
X148800000Y-77900000D02*
X156400000Y-70100000D01*
X129800000Y-77900000D02*
X148800000Y-77900000D01*
X129800000Y-65900000D02*
X129800000Y-77900000D01*
X157800000Y-109600000D02*
X161700000Y-109600000D01*
X175700000Y-65900000D02*
X162400000Y-65900000D01*
X162400000Y-65900000D02*
X157400000Y-65900000D01*
X156402857Y-66600886D02*
G75*
G02X157400000Y-65900000I952331J-295115D01*
G01*
X156400000Y-66600000D02*
X156400000Y-70100000D01*
X98800000Y-109600000D02*
G75*
G02X97800000Y-108600000I0J1000000D01*
G01*
X92198215Y-108600000D02*
G75*
G02X91198215Y-109600000I-1000000J0D01*
G01*
X92198215Y-106600000D02*
G75*
G02X97800000Y-106500000I2801785J0D01*
G01*
X97800000Y-108600000D02*
X97800000Y-106500000D01*
X92200000Y-108600000D02*
X92198215Y-106600000D01*
X139800000Y-108600000D02*
G75*
G02X138800000Y-109600000I-1000000J0D01*
G01*
X101000000Y-66900000D02*
G75*
G02X102000000Y-65900000I1000000J0D01*
G01*
X91000000Y-65900000D02*
G75*
G02X92000000Y-66900000I0J-1000000D01*
G01*
X85500000Y-69900000D02*
G75*
G02X89500000Y-65900000I4000000J0D01*
G01*
X89500000Y-109600000D02*
G75*
G02X85500000Y-105600000I0J4000000D01*
G01*
X185500000Y-105600000D02*
G75*
G02X181500000Y-109600000I-4000000J0D01*
G01*
X181500000Y-65900000D02*
G75*
G02X185500000Y-69900000I0J-4000000D01*
G01*
X156900000Y-103600000D02*
X139800000Y-103600000D01*
X139800000Y-103600000D02*
X139800000Y-108600000D01*
X156900000Y-108700000D02*
X156900000Y-103600000D01*
X138800000Y-109600000D02*
X98800000Y-109600000D01*
X181500000Y-109600000D02*
X176200000Y-109600000D01*
X185500000Y-69900000D02*
X185500000Y-105600000D01*
X175700000Y-65900000D02*
X181500000Y-65900000D01*
X102000000Y-65900000D02*
X129800000Y-65900000D01*
X101000000Y-81900000D02*
X101000000Y-66900000D01*
X92000000Y-81900000D02*
X101000000Y-81900000D01*
X92000000Y-66900000D02*
X92000000Y-81900000D01*
X89500000Y-65900000D02*
X91000000Y-65900000D01*
X85500000Y-105600000D02*
X85500000Y-100100000D01*
X91200000Y-109600000D02*
X89500000Y-109600000D01*
D11*
X177580000Y-100240000D03*
X180120000Y-100240000D03*
X182660000Y-100240000D03*
D12*
X127184546Y-102334532D03*
X127184546Y-104874532D03*
D13*
X99244546Y-104884532D03*
D14*
X122104546Y-104874532D03*
X119564546Y-104874532D03*
D13*
X109404546Y-102334532D03*
X101784546Y-102334532D03*
D12*
X88200000Y-81500000D03*
X88200000Y-78960000D03*
D15*
X160700000Y-98960000D03*
X160700000Y-101500000D03*
X160700000Y-96420000D03*
X160660000Y-68600000D03*
X160660000Y-76220000D03*
X160660000Y-83840000D03*
X160660000Y-78760000D03*
X160660000Y-81300000D03*
X160660000Y-91460000D03*
X160660000Y-88920000D03*
X160660000Y-86380000D03*
X152950000Y-97570000D03*
X145330000Y-97570000D03*
D11*
X140390000Y-94040000D03*
X140390000Y-86420000D03*
X135130000Y-94040000D03*
X135130000Y-86420000D03*
X129870000Y-94040000D03*
X129870000Y-86420000D03*
D15*
X152950000Y-91510000D03*
X145330000Y-91510000D03*
D16*
X158500000Y-96420000D02*
X158500000Y-96420000D01*
X155150000Y-97570000D02*
X156300000Y-96420000D01*
X156300000Y-96420000D02*
X158500000Y-96420000D01*
X155150000Y-97570000D02*
X155150000Y-97570000D01*
X152950000Y-97570000D02*
X155150000Y-97570000D01*
X158500000Y-96420000D02*
X160700000Y-96420000D01*
X122204546Y-104874532D02*
X124330014Y-107000000D01*
X124330014Y-107000000D02*
X130385774Y-107000000D01*
X150750000Y-97570000D02*
X148430000Y-99890000D01*
X152950000Y-97570000D02*
X150750000Y-97570000D01*
X137495774Y-99890000D02*
X130385774Y-107000000D01*
X148430000Y-99890000D02*
X137495774Y-99890000D01*
X163460000Y-81340000D02*
X163460000Y-81340000D01*
X163460000Y-81340000D02*
X160500000Y-81340000D01*
X164600000Y-80200000D02*
X163460000Y-81340000D01*
X164600000Y-70340000D02*
X164600000Y-80200000D01*
X162860000Y-68600000D02*
X164600000Y-70340000D01*
X160660000Y-68600000D02*
X162860000Y-68600000D01*
X88360000Y-81580000D02*
X88260000Y-81580000D01*
X90405020Y-83625020D02*
X88360000Y-81580000D01*
X90700010Y-83900010D02*
X90425020Y-83625020D01*
X126704532Y-104874532D02*
X125460000Y-103630000D01*
X127184546Y-104874532D02*
X126704532Y-104874532D01*
X125460000Y-103630000D02*
X123940000Y-103630000D01*
X123940000Y-103630000D02*
X123360000Y-103050000D01*
X90425020Y-83625020D02*
X90405020Y-83625020D01*
X123360000Y-103050000D02*
X123360000Y-101897984D01*
X123360000Y-101897984D02*
X105362026Y-83900010D01*
X90700010Y-83900010D02*
X105362026Y-83900010D01*
X91699692Y-82625010D02*
X91100000Y-82025318D01*
X90240000Y-79040000D02*
X88260000Y-79040000D01*
X91100000Y-82025318D02*
X91100000Y-79900000D01*
X91100000Y-79900000D02*
X90240000Y-79040000D01*
X91699692Y-82625010D02*
X91725010Y-82625010D01*
X92000000Y-82900000D02*
X105950014Y-82900000D01*
X91725010Y-82625010D02*
X92000000Y-82900000D01*
X125300000Y-100549986D02*
X123600000Y-100549986D01*
X127084546Y-102334532D02*
X125300000Y-100549986D01*
X127184546Y-102334532D02*
X127084546Y-102334532D01*
X123600000Y-100549986D02*
X105950014Y-82900000D01*
X180120000Y-96440000D02*
X177590000Y-93910000D01*
X180120000Y-100240000D02*
X180120000Y-96440000D01*
X177590000Y-93910000D02*
X145490000Y-93910000D01*
X131640000Y-94040000D02*
X129870000Y-94040000D01*
X145490000Y-93910000D02*
X142900000Y-96500000D01*
X142900000Y-96500000D02*
X134100000Y-96500000D01*
X134100000Y-96500000D02*
X131640000Y-94040000D01*
X157530000Y-88920000D02*
X160660000Y-88920000D01*
X156590000Y-87980000D02*
X157530000Y-88920000D01*
X156590000Y-80350000D02*
X156590000Y-87980000D01*
X158180000Y-78760000D02*
X156590000Y-80350000D01*
X160660000Y-78760000D02*
X158180000Y-78760000D01*
M02*
