%TF.GenerationSoftware,KiCad,Pcbnew,(5.0.0)*%
%TF.CreationDate,2019-07-16T15:39:35+02:00*%
%TF.ProjectId,Gnu_Vario_E_V1.10,476E755F566172696F5F455F56312E31,V 1.10*%
%TF.SameCoordinates,Original*%
%TF.FileFunction,Legend,Top*%
%TF.FilePolarity,Positive*%
%FSLAX46Y46*%
G04 Gerber Fmt 4.6, Leading zero omitted, Abs format (unit mm)*
G04 Created by KiCad (PCBNEW (5.0.0)) date 07/16/19 15:39:35*
%MOMM*%
%LPD*%
G01*
G04 APERTURE LIST*
%ADD10C,0.250000*%
%ADD11C,0.150000*%
%ADD12C,0.450000*%
%ADD13C,0.010000*%
G04 APERTURE END LIST*
D10*
X183938571Y-98056919D02*
X183986190Y-97920014D01*
X184033809Y-97878348D01*
X184129047Y-97842633D01*
X184271904Y-97860491D01*
X184367142Y-97920014D01*
X184414761Y-97973586D01*
X184462380Y-98074776D01*
X184462380Y-98455729D01*
X183462380Y-98330729D01*
X183462380Y-97997395D01*
X183510000Y-97908110D01*
X183557619Y-97866443D01*
X183652857Y-97830729D01*
X183748095Y-97842633D01*
X183843333Y-97902157D01*
X183890952Y-97955729D01*
X183938571Y-98056919D01*
X183938571Y-98390252D01*
X183795714Y-97467633D02*
X184462380Y-97312872D01*
X183795714Y-96991443D02*
X184462380Y-97312872D01*
X184700476Y-97437872D01*
X184748095Y-97491443D01*
X184795714Y-97592633D01*
X184462380Y-95931919D02*
X183462380Y-95806919D01*
X183462380Y-95425967D01*
X183510000Y-95336681D01*
X183557619Y-95295014D01*
X183652857Y-95259300D01*
X183795714Y-95277157D01*
X183890952Y-95336681D01*
X183938571Y-95390252D01*
X183986190Y-95491443D01*
X183986190Y-95872395D01*
X184462380Y-94931919D02*
X183795714Y-94848586D01*
X183986190Y-94872395D02*
X183890952Y-94812872D01*
X183843333Y-94759300D01*
X183795714Y-94658110D01*
X183795714Y-94562872D01*
X183795714Y-93800967D02*
X184462380Y-93884300D01*
X183795714Y-94229538D02*
X184319523Y-94295014D01*
X184414761Y-94259300D01*
X184462380Y-94170014D01*
X184462380Y-94027157D01*
X184414761Y-93925967D01*
X184367142Y-93872395D01*
X183795714Y-93324776D02*
X184462380Y-93408110D01*
X183890952Y-93336681D02*
X183843333Y-93283110D01*
X183795714Y-93181919D01*
X183795714Y-93039062D01*
X183843333Y-92949776D01*
X183938571Y-92914062D01*
X184462380Y-92979538D01*
X184462380Y-92503348D02*
X183462380Y-92378348D01*
X184081428Y-92360491D02*
X184462380Y-92122395D01*
X183795714Y-92039062D02*
X184176666Y-92467633D01*
X184462380Y-91265252D02*
X183462380Y-91140252D01*
X184414761Y-91259300D02*
X184462380Y-91360491D01*
X184462380Y-91550967D01*
X184414761Y-91640252D01*
X184367142Y-91681919D01*
X184271904Y-91717633D01*
X183986190Y-91681919D01*
X183890952Y-91622395D01*
X183843333Y-91568824D01*
X183795714Y-91467633D01*
X183795714Y-91277157D01*
X183843333Y-91187872D01*
X183795714Y-90277157D02*
X184462380Y-90360491D01*
X183795714Y-90705729D02*
X184319523Y-90771205D01*
X184414761Y-90735491D01*
X184462380Y-90646205D01*
X184462380Y-90503348D01*
X184414761Y-90402157D01*
X184367142Y-90348586D01*
X184462380Y-89884300D02*
X183795714Y-89800967D01*
X183890952Y-89812872D02*
X183843333Y-89759300D01*
X183795714Y-89658110D01*
X183795714Y-89515252D01*
X183843333Y-89425967D01*
X183938571Y-89390252D01*
X184462380Y-89455729D01*
X183938571Y-89390252D02*
X183843333Y-89330729D01*
X183795714Y-89229538D01*
X183795714Y-89086681D01*
X183843333Y-88997395D01*
X183938571Y-88961681D01*
X184462380Y-89027157D01*
X183795714Y-88467633D02*
X184795714Y-88592633D01*
X183843333Y-88473586D02*
X183795714Y-88372395D01*
X183795714Y-88181919D01*
X183843333Y-88092633D01*
X183890952Y-88050967D01*
X183986190Y-88015252D01*
X184271904Y-88050967D01*
X184367142Y-88110491D01*
X184414761Y-88164062D01*
X184462380Y-88265252D01*
X184462380Y-88455729D01*
X184414761Y-88545014D01*
X184414761Y-87592633D02*
X184462380Y-87598586D01*
X184557619Y-87658110D01*
X184605238Y-87711681D01*
X183462380Y-85997395D02*
X184176666Y-86086681D01*
X184319523Y-86152157D01*
X184414761Y-86259300D01*
X184462380Y-86408110D01*
X184462380Y-86503348D01*
X183795714Y-85562872D02*
X184795714Y-85687872D01*
X183843333Y-85568824D02*
X183795714Y-85467633D01*
X183795714Y-85277157D01*
X183843333Y-85187872D01*
X183890952Y-85146205D01*
X183986190Y-85110491D01*
X184271904Y-85146205D01*
X184367142Y-85205729D01*
X184414761Y-85259300D01*
X184462380Y-85360491D01*
X184462380Y-85550967D01*
X184414761Y-85640252D01*
X183795714Y-84229538D02*
X184605238Y-84330729D01*
X184700476Y-84390252D01*
X184748095Y-84443824D01*
X184795714Y-84545014D01*
X184795714Y-84687872D01*
X184748095Y-84777157D01*
X184414761Y-84306919D02*
X184462380Y-84408110D01*
X184462380Y-84598586D01*
X184414761Y-84687872D01*
X184367142Y-84729538D01*
X184271904Y-84765252D01*
X183986190Y-84729538D01*
X183890952Y-84670014D01*
X183843333Y-84616443D01*
X183795714Y-84515252D01*
X183795714Y-84324776D01*
X183843333Y-84235491D01*
X183462380Y-83283110D02*
X183462380Y-83473586D01*
X183510000Y-83574776D01*
X183557619Y-83628348D01*
X183700476Y-83741443D01*
X183890952Y-83812872D01*
X184271904Y-83860491D01*
X184367142Y-83824776D01*
X184414761Y-83783110D01*
X184462380Y-83693824D01*
X184462380Y-83503348D01*
X184414761Y-83402157D01*
X184367142Y-83348586D01*
X184271904Y-83289062D01*
X184033809Y-83259300D01*
X183938571Y-83295014D01*
X183890952Y-83336681D01*
X183843333Y-83425967D01*
X183843333Y-83616443D01*
X183890952Y-83717633D01*
X183938571Y-83771205D01*
X184033809Y-83830729D01*
X183462380Y-82854538D02*
X183462380Y-82235491D01*
X183843333Y-82616443D01*
X183843333Y-82473586D01*
X183890952Y-82384300D01*
X183938571Y-82342633D01*
X184033809Y-82306919D01*
X184271904Y-82336681D01*
X184367142Y-82396205D01*
X184414761Y-82449776D01*
X184462380Y-82550967D01*
X184462380Y-82836681D01*
X184414761Y-82925967D01*
X184367142Y-82967633D01*
X184462380Y-80360491D02*
X184462380Y-80408110D01*
X184414761Y-80497395D01*
X184271904Y-80622395D01*
X183986190Y-80824776D01*
X183843333Y-80902157D01*
X183700476Y-80931919D01*
X183605238Y-80920014D01*
X183510000Y-80860491D01*
X183462380Y-80759300D01*
X183462380Y-80711681D01*
X183510000Y-80622395D01*
X183605238Y-80586681D01*
X183652857Y-80592633D01*
X183748095Y-80652157D01*
X183795714Y-80705729D01*
X183986190Y-81015252D01*
X184033809Y-81068824D01*
X184129047Y-81128348D01*
X184271904Y-81146205D01*
X184367142Y-81110491D01*
X184414761Y-81068824D01*
X184462380Y-80979538D01*
X184462380Y-80836681D01*
X184414761Y-80735491D01*
X184367142Y-80681919D01*
X184176666Y-80515252D01*
X184033809Y-80449776D01*
X183938571Y-80437872D01*
X184462380Y-78598586D02*
X183986190Y-78872395D01*
X184462380Y-79170014D02*
X183462380Y-79045014D01*
X183462380Y-78664062D01*
X183510000Y-78574776D01*
X183557619Y-78533110D01*
X183652857Y-78497395D01*
X183795714Y-78515252D01*
X183890952Y-78574776D01*
X183938571Y-78628348D01*
X183986190Y-78729538D01*
X183986190Y-79110491D01*
X184462380Y-77741443D02*
X183938571Y-77675967D01*
X183843333Y-77711681D01*
X183795714Y-77800967D01*
X183795714Y-77991443D01*
X183843333Y-78092633D01*
X184414761Y-77735491D02*
X184462380Y-77836681D01*
X184462380Y-78074776D01*
X184414761Y-78164062D01*
X184319523Y-78199776D01*
X184224285Y-78187872D01*
X184129047Y-78128348D01*
X184081428Y-78027157D01*
X184081428Y-77789062D01*
X184033809Y-77687872D01*
X183795714Y-77324776D02*
X183795714Y-76943824D01*
X183462380Y-77140252D02*
X184319523Y-77247395D01*
X184414761Y-77211681D01*
X184462380Y-77122395D01*
X184462380Y-77027157D01*
X184462380Y-76265252D02*
X183938571Y-76199776D01*
X183843333Y-76235491D01*
X183795714Y-76324776D01*
X183795714Y-76515252D01*
X183843333Y-76616443D01*
X184414761Y-76259300D02*
X184462380Y-76360491D01*
X184462380Y-76598586D01*
X184414761Y-76687872D01*
X184319523Y-76723586D01*
X184224285Y-76711681D01*
X184129047Y-76652157D01*
X184081428Y-76550967D01*
X184081428Y-76312872D01*
X184033809Y-76211681D01*
X184462380Y-75789062D02*
X183795714Y-75705729D01*
X183890952Y-75717633D02*
X183843333Y-75664062D01*
X183795714Y-75562872D01*
X183795714Y-75420014D01*
X183843333Y-75330729D01*
X183938571Y-75295014D01*
X184462380Y-75360491D01*
X183938571Y-75295014D02*
X183843333Y-75235491D01*
X183795714Y-75134300D01*
X183795714Y-74991443D01*
X183843333Y-74902157D01*
X183938571Y-74866443D01*
X184462380Y-74931919D01*
X183795714Y-73943824D02*
X184462380Y-74027157D01*
X183795714Y-74372395D02*
X184319523Y-74437872D01*
X184414761Y-74402157D01*
X184462380Y-74312872D01*
X184462380Y-74170014D01*
X184414761Y-74068824D01*
X184367142Y-74015252D01*
X184414761Y-73592633D02*
X184462380Y-73503348D01*
X184462380Y-73312872D01*
X184414761Y-73211681D01*
X184319523Y-73152157D01*
X184271904Y-73146205D01*
X184176666Y-73181919D01*
X184129047Y-73271205D01*
X184129047Y-73414062D01*
X184081428Y-73503348D01*
X183986190Y-73539062D01*
X183938571Y-73533110D01*
X183843333Y-73473586D01*
X183795714Y-73372395D01*
X183795714Y-73229538D01*
X183843333Y-73140252D01*
X184414761Y-72354538D02*
X184462380Y-72455729D01*
X184462380Y-72646205D01*
X184414761Y-72735491D01*
X184319523Y-72771205D01*
X183938571Y-72723586D01*
X183843333Y-72664062D01*
X183795714Y-72562872D01*
X183795714Y-72372395D01*
X183843333Y-72283110D01*
X183938571Y-72247395D01*
X184033809Y-72259300D01*
X184129047Y-72747395D01*
D11*
X162700000Y-95300000D02*
X173500000Y-95300000D01*
X162700000Y-108600000D02*
G75*
G02X161700000Y-109600000I-1000000J0D01*
G01*
X176200000Y-109600000D02*
G75*
G02X175300000Y-108700000I0J900000D01*
G01*
X175300000Y-97100000D02*
X175300000Y-108700000D01*
X173500000Y-95300000D02*
X175300000Y-97100000D01*
X162700000Y-95300000D02*
X162700000Y-108600000D01*
X157800000Y-109600000D02*
G75*
G02X156900000Y-108700000I0J900000D01*
G01*
X85500000Y-69900000D02*
X85500000Y-85100000D01*
X102000000Y-100100000D02*
X85500000Y-100100000D01*
X102000000Y-85100000D02*
X102000000Y-100100000D01*
X101000000Y-85100000D02*
X102000000Y-85100000D01*
X101000000Y-85100000D02*
X85500000Y-85100000D01*
X148800000Y-77900000D02*
X156400000Y-70100000D01*
X129800000Y-77900000D02*
X148800000Y-77900000D01*
X129800000Y-65900000D02*
X129800000Y-77900000D01*
X157800000Y-109600000D02*
X161700000Y-109600000D01*
X175700000Y-65900000D02*
X162400000Y-65900000D01*
X162400000Y-65900000D02*
X157400000Y-65900000D01*
X156402857Y-66600886D02*
G75*
G02X157400000Y-65900000I952331J-295115D01*
G01*
X156400000Y-66600000D02*
X156400000Y-70100000D01*
X98800000Y-109600000D02*
G75*
G02X97800000Y-108600000I0J1000000D01*
G01*
X92198215Y-108600000D02*
G75*
G02X91198215Y-109600000I-1000000J0D01*
G01*
X92198215Y-106600000D02*
G75*
G02X97800000Y-106500000I2801785J0D01*
G01*
X97800000Y-108600000D02*
X97800000Y-106500000D01*
X92200000Y-108600000D02*
X92198215Y-106600000D01*
X139800000Y-108600000D02*
G75*
G02X138800000Y-109600000I-1000000J0D01*
G01*
X101000000Y-66900000D02*
G75*
G02X102000000Y-65900000I1000000J0D01*
G01*
X91000000Y-65900000D02*
G75*
G02X92000000Y-66900000I0J-1000000D01*
G01*
X85500000Y-69900000D02*
G75*
G02X89500000Y-65900000I4000000J0D01*
G01*
X89500000Y-109600000D02*
G75*
G02X85500000Y-105600000I0J4000000D01*
G01*
X185500000Y-105600000D02*
G75*
G02X181500000Y-109600000I-4000000J0D01*
G01*
X181500000Y-65900000D02*
G75*
G02X185500000Y-69900000I0J-4000000D01*
G01*
X156900000Y-103600000D02*
X139800000Y-103600000D01*
X139800000Y-103600000D02*
X139800000Y-108600000D01*
X156900000Y-108700000D02*
X156900000Y-103600000D01*
X138800000Y-109600000D02*
X98800000Y-109600000D01*
X181500000Y-109600000D02*
X176200000Y-109600000D01*
X185500000Y-69900000D02*
X185500000Y-105600000D01*
X175700000Y-65900000D02*
X181500000Y-65900000D01*
X102000000Y-65900000D02*
X129800000Y-65900000D01*
X101000000Y-81900000D02*
X101000000Y-66900000D01*
X92000000Y-81900000D02*
X101000000Y-81900000D01*
X92000000Y-66900000D02*
X92000000Y-81900000D01*
X89500000Y-65900000D02*
X91000000Y-65900000D01*
X85500000Y-105600000D02*
X85500000Y-100100000D01*
X91200000Y-109600000D02*
X89500000Y-109600000D01*
D12*
X115234285Y-80461026D02*
X117034285Y-80086026D01*
X115234285Y-79261026D01*
X116520000Y-78907455D02*
X116520000Y-78050312D01*
X117034285Y-79143169D02*
X115234285Y-78318169D01*
X117034285Y-77943169D01*
X117034285Y-76314598D02*
X116177142Y-76807455D01*
X117034285Y-77343169D02*
X115234285Y-77118169D01*
X115234285Y-76432455D01*
X115320000Y-76271741D01*
X115405714Y-76196741D01*
X115577142Y-76132455D01*
X115834285Y-76164598D01*
X116005714Y-76271741D01*
X116091428Y-76368169D01*
X116177142Y-76550312D01*
X116177142Y-77236026D01*
X117034285Y-75543169D02*
X115234285Y-75318169D01*
X115234285Y-74118169D02*
X115234285Y-73775312D01*
X115320000Y-73614598D01*
X115491428Y-73464598D01*
X115834285Y-73421741D01*
X116434285Y-73496741D01*
X116777142Y-73625312D01*
X116948571Y-73818169D01*
X117034285Y-74000312D01*
X117034285Y-74343169D01*
X116948571Y-74503883D01*
X116777142Y-74653883D01*
X116434285Y-74696741D01*
X115834285Y-74621741D01*
X115491428Y-74493169D01*
X115320000Y-74300312D01*
X115234285Y-74118169D01*
X116348571Y-72714598D02*
X116348571Y-71343169D01*
X116091428Y-70453883D02*
X116091428Y-69853883D01*
X117034285Y-69714598D02*
X117034285Y-70571741D01*
X115234285Y-70346741D01*
X115234285Y-69489598D01*
D13*
G36*
X102259254Y-74695363D02*
X102278675Y-74055600D01*
X102317141Y-73541661D01*
X102381149Y-73089490D01*
X102477193Y-72635038D01*
X102590089Y-72194574D01*
X102965281Y-71037326D01*
X103431459Y-69992345D01*
X103964893Y-69104534D01*
X104541856Y-68418797D01*
X104627488Y-68339014D01*
X105058375Y-67989511D01*
X105366879Y-67831457D01*
X105521935Y-67826288D01*
X105841820Y-67822942D01*
X106011761Y-67764213D01*
X106144820Y-67731427D01*
X106306856Y-67791657D01*
X106535295Y-67972386D01*
X106867565Y-68301095D01*
X107150966Y-68600723D01*
X107642671Y-69118760D01*
X108004029Y-69466608D01*
X108272942Y-69664361D01*
X108487314Y-69732115D01*
X108685048Y-69689962D01*
X108904047Y-69557999D01*
X108926576Y-69542061D01*
X109529698Y-69255077D01*
X110178253Y-69183643D01*
X110821785Y-69308099D01*
X111409843Y-69608788D01*
X111891972Y-70066053D01*
X112217718Y-70660236D01*
X112273431Y-70846050D01*
X112298370Y-71055413D01*
X112216287Y-71219544D01*
X111980849Y-71399971D01*
X111751887Y-71538606D01*
X111146112Y-71893614D01*
X112011259Y-72053288D01*
X112641768Y-72205722D01*
X113052798Y-72402608D01*
X113278160Y-72669428D01*
X113351666Y-73031663D01*
X113352000Y-73063716D01*
X113308357Y-73366855D01*
X113153253Y-73568258D01*
X112850420Y-73683219D01*
X112363595Y-73727033D01*
X111953423Y-73722224D01*
X111953423Y-73620000D01*
X112598268Y-73571245D01*
X113020243Y-73428447D01*
X113214000Y-73196814D01*
X113174194Y-72881548D01*
X112996814Y-72604343D01*
X112796358Y-72432891D01*
X112487636Y-72320419D01*
X112002595Y-72243608D01*
X111917314Y-72234431D01*
X111450595Y-72203576D01*
X111163153Y-72216638D01*
X111072615Y-72261132D01*
X111196612Y-72324571D01*
X111552774Y-72394468D01*
X111669250Y-72410129D01*
X112291692Y-72536305D01*
X112707452Y-72727675D01*
X112897388Y-72974295D01*
X112907500Y-73053370D01*
X112882082Y-73180220D01*
X112771641Y-73259171D01*
X112524895Y-73305078D01*
X112090562Y-73332794D01*
X111919102Y-73339667D01*
X111373165Y-73381205D01*
X111076508Y-73445010D01*
X111027234Y-73515588D01*
X111223447Y-73577444D01*
X111663249Y-73615083D01*
X111953423Y-73620000D01*
X111953423Y-73722224D01*
X111795038Y-73720367D01*
X111278915Y-73696652D01*
X110966625Y-73660933D01*
X110808009Y-73599270D01*
X110752908Y-73497722D01*
X110748500Y-73429500D01*
X110770996Y-73299633D01*
X110873578Y-73223435D01*
X111108881Y-73186869D01*
X111529543Y-73175899D01*
X111701000Y-73175500D01*
X112164702Y-73159781D01*
X112518216Y-73118234D01*
X112695150Y-73059276D01*
X112702750Y-73048500D01*
X112647581Y-72889758D01*
X112393693Y-72749787D01*
X111996365Y-72648578D01*
X111510874Y-72606120D01*
X111478750Y-72605873D01*
X111025973Y-72574876D01*
X110818322Y-72485377D01*
X110803949Y-72445250D01*
X110761318Y-72414340D01*
X110693085Y-72540500D01*
X110645157Y-72780111D01*
X110602418Y-73213385D01*
X110567467Y-73780003D01*
X110542905Y-74419641D01*
X110531333Y-75071978D01*
X110535351Y-75676691D01*
X110545259Y-75969500D01*
X110568667Y-76327886D01*
X110603948Y-76463635D01*
X110666586Y-76408083D01*
X110715293Y-76313617D01*
X110902919Y-76083936D01*
X111095787Y-76083590D01*
X111245574Y-76293627D01*
X111297715Y-76542041D01*
X111444647Y-77038179D01*
X111753000Y-77390023D01*
X112178285Y-77551562D01*
X112279087Y-77557000D01*
X112688024Y-77472908D01*
X112909776Y-77236670D01*
X112922237Y-76872348D01*
X112919262Y-76860150D01*
X112772818Y-76599289D01*
X112562715Y-76565249D01*
X112352776Y-76765158D01*
X112336000Y-76795000D01*
X112156442Y-76975269D01*
X111928806Y-77045448D01*
X111748314Y-76993449D01*
X111701000Y-76875628D01*
X111784317Y-76632920D01*
X111983031Y-76350656D01*
X112220279Y-76120349D01*
X112408717Y-76033000D01*
X112571723Y-75961409D01*
X112590000Y-75906000D01*
X112472627Y-75840712D01*
X112380308Y-75827470D01*
X112380308Y-75634771D01*
X112746774Y-75633970D01*
X112996244Y-75613729D01*
X113060962Y-75572636D01*
X113060574Y-75572242D01*
X112900016Y-75515701D01*
X112567278Y-75452006D01*
X112245657Y-75408426D01*
X111510500Y-75324370D01*
X112209000Y-74965127D01*
X112769035Y-74660707D01*
X113090972Y-74437381D01*
X113171840Y-74283801D01*
X113008667Y-74188618D01*
X112598483Y-74140485D01*
X111989838Y-74128000D01*
X111418990Y-74140529D01*
X111095190Y-74174273D01*
X111019978Y-74223470D01*
X111194890Y-74282359D01*
X111621465Y-74345176D01*
X111923706Y-74375725D01*
X112780500Y-74453203D01*
X111828000Y-74950278D01*
X111371264Y-75191754D01*
X111113963Y-75344237D01*
X111029606Y-75434814D01*
X111091704Y-75490572D01*
X111256500Y-75534651D01*
X111567415Y-75583700D01*
X111964603Y-75617544D01*
X112380308Y-75634771D01*
X112380308Y-75827470D01*
X112158447Y-75795646D01*
X111708495Y-75779000D01*
X111132445Y-75743669D01*
X110800244Y-75641899D01*
X110712388Y-75480029D01*
X110869375Y-75264397D01*
X111271703Y-75001340D01*
X111633419Y-74822303D01*
X112272500Y-74529811D01*
X111542250Y-74519406D01*
X111131036Y-74506173D01*
X110912880Y-74462751D01*
X110826849Y-74360984D01*
X110812000Y-74181966D01*
X110812000Y-73854932D01*
X111986750Y-73942642D01*
X112513802Y-73991736D01*
X112944912Y-74050033D01*
X113216989Y-74108144D01*
X113273613Y-74134140D01*
X113341363Y-74335372D01*
X113180019Y-74576433D01*
X112806949Y-74835719D01*
X112640750Y-74921399D01*
X112048260Y-75207500D01*
X112667277Y-75271000D01*
X113071070Y-75338465D01*
X113276091Y-75450041D01*
X113330193Y-75565752D01*
X113267338Y-75787825D01*
X113125363Y-75862047D01*
X112970315Y-75919305D01*
X112979216Y-76013597D01*
X113161692Y-76212132D01*
X113177817Y-76228273D01*
X113424495Y-76639849D01*
X113467135Y-77124808D01*
X113303700Y-77602543D01*
X113215782Y-77730373D01*
X112859989Y-77993186D01*
X112386438Y-78089258D01*
X112182496Y-78061578D01*
X112182496Y-77915332D01*
X112652700Y-77879310D01*
X112905040Y-77760791D01*
X113119567Y-77565066D01*
X113211059Y-77290834D01*
X113225000Y-77007973D01*
X113191301Y-76634591D01*
X113107088Y-76361011D01*
X113072600Y-76312400D01*
X112786882Y-76181358D01*
X112448526Y-76221859D01*
X112147341Y-76395958D01*
X111973137Y-76665714D01*
X111958861Y-76782934D01*
X111979679Y-76909714D01*
X112061192Y-76815511D01*
X112091300Y-76764808D01*
X112309139Y-76523015D01*
X112476557Y-76406745D01*
X112755327Y-76355361D01*
X112964296Y-76489539D01*
X113087619Y-76746638D01*
X113109452Y-77064017D01*
X113013951Y-77379036D01*
X112785661Y-77628797D01*
X112366029Y-77770289D01*
X111931598Y-77697549D01*
X111533310Y-77441689D01*
X111222109Y-77033823D01*
X111061061Y-76575512D01*
X110968209Y-76096500D01*
X110953604Y-76570747D01*
X111047395Y-77059672D01*
X111322022Y-77470252D01*
X111719662Y-77767226D01*
X112182496Y-77915332D01*
X112182496Y-78061578D01*
X111868636Y-78018978D01*
X111380095Y-77782735D01*
X111297994Y-77720221D01*
X111056655Y-77528519D01*
X110991491Y-77497129D01*
X111085594Y-77621328D01*
X111129500Y-77673178D01*
X111407390Y-77910689D01*
X111793822Y-78143127D01*
X111923250Y-78203945D01*
X112244297Y-78374950D01*
X112436904Y-78540113D01*
X112461759Y-78600237D01*
X112410294Y-78798966D01*
X112278920Y-79139465D01*
X112153476Y-79422967D01*
X111794544Y-79979567D01*
X111293309Y-80371751D01*
X110605180Y-80633157D01*
X110521491Y-80654093D01*
X110149607Y-80667146D01*
X110149607Y-80476872D01*
X110779313Y-80380339D01*
X111345068Y-80119975D01*
X111785951Y-79709903D01*
X111954076Y-79423564D01*
X112131302Y-78975378D01*
X112165495Y-78681327D01*
X112040308Y-78475394D01*
X111739393Y-78291563D01*
X111664830Y-78255500D01*
X111095304Y-77856122D01*
X110875500Y-77540033D01*
X110875500Y-77303000D01*
X110939000Y-77239500D01*
X110875500Y-77176000D01*
X110812000Y-77239500D01*
X110875500Y-77303000D01*
X110875500Y-77540033D01*
X110748500Y-77357401D01*
X110748500Y-77049000D01*
X110812000Y-76985500D01*
X110748500Y-76922000D01*
X110685000Y-76985500D01*
X110748500Y-77049000D01*
X110748500Y-77357401D01*
X110688770Y-77271506D01*
X110439945Y-76501417D01*
X110379481Y-76172446D01*
X110339219Y-75856097D01*
X110317147Y-75497947D01*
X110311255Y-75043574D01*
X110319529Y-74438556D01*
X110337309Y-73724564D01*
X110390975Y-73022483D01*
X110532939Y-72483528D01*
X110800670Y-72048949D01*
X111231636Y-71659998D01*
X111863305Y-71257926D01*
X111937458Y-71215582D01*
X112050881Y-71021511D01*
X112017058Y-70704315D01*
X111856212Y-70331840D01*
X111588567Y-69971934D01*
X111557148Y-69939687D01*
X111007862Y-69548108D01*
X110400960Y-69374147D01*
X109782411Y-69403502D01*
X109198182Y-69621873D01*
X108694244Y-70014960D01*
X108316563Y-70568460D01*
X108163551Y-70995439D01*
X108106216Y-71446253D01*
X108115887Y-71984481D01*
X108183376Y-72507556D01*
X108299495Y-72912911D01*
X108342850Y-72996895D01*
X108465200Y-73093419D01*
X108553668Y-72982850D01*
X108590023Y-72711615D01*
X108570359Y-72417527D01*
X108580608Y-71862505D01*
X108740577Y-71341419D01*
X109014448Y-70894719D01*
X109366402Y-70562857D01*
X109760621Y-70386284D01*
X110161285Y-70405452D01*
X110297786Y-70466673D01*
X110519538Y-70647259D01*
X110602225Y-70908088D01*
X110605513Y-71136667D01*
X110568455Y-71426936D01*
X110449935Y-71679308D01*
X110206042Y-71964503D01*
X109924734Y-72233013D01*
X109259941Y-72844189D01*
X109347485Y-73962345D01*
X109379618Y-74703976D01*
X109345496Y-75238403D01*
X109292769Y-75451813D01*
X109205633Y-75865119D01*
X109281106Y-76282653D01*
X109535889Y-76746199D01*
X109986683Y-77297542D01*
X110064130Y-77381690D01*
X110522432Y-77926553D01*
X110768482Y-78360492D01*
X110805844Y-78706521D01*
X110638083Y-78987651D01*
X110344099Y-79188988D01*
X109916634Y-79323682D01*
X109518643Y-79237413D01*
X109100663Y-78918954D01*
X109084800Y-78903201D01*
X108860785Y-78662826D01*
X108730764Y-78446768D01*
X108668310Y-78173163D01*
X108646996Y-77760150D01*
X108644073Y-77537951D01*
X108626203Y-77041398D01*
X108587669Y-76618950D01*
X108536612Y-76358199D01*
X108533687Y-76350500D01*
X108464560Y-76246621D01*
X108388430Y-76318140D01*
X108284385Y-76594591D01*
X108225113Y-76786301D01*
X108054310Y-77659006D01*
X108066644Y-78481502D01*
X108253109Y-79211883D01*
X108604699Y-79808244D01*
X108942024Y-80121940D01*
X109516870Y-80395447D01*
X110149607Y-80476872D01*
X110149607Y-80667146D01*
X110070420Y-80669926D01*
X109525414Y-80558747D01*
X108994008Y-80348226D01*
X108740365Y-80195778D01*
X108380902Y-79939818D01*
X108040701Y-80251605D01*
X107743195Y-80522546D01*
X107368299Y-80861763D01*
X107175223Y-81035705D01*
X106863567Y-81368395D01*
X106640663Y-81703199D01*
X106578209Y-81866702D01*
X106387566Y-82318982D01*
X106036259Y-82574546D01*
X105642668Y-82637000D01*
X105504941Y-82607013D01*
X105504941Y-82502837D01*
X105894060Y-82475895D01*
X106201726Y-82247167D01*
X106374131Y-81906808D01*
X106576507Y-81511987D01*
X106882370Y-81138152D01*
X106955499Y-81072004D01*
X107248283Y-80809794D01*
X107368117Y-80667769D01*
X107310655Y-80662361D01*
X107071548Y-80810006D01*
X107014144Y-80850353D01*
X106677211Y-81058640D01*
X106562990Y-81073488D01*
X106562990Y-80963007D01*
X107398220Y-80340798D01*
X108233451Y-79718588D01*
X107988272Y-78992342D01*
X107837053Y-78378988D01*
X107818044Y-77767051D01*
X107934734Y-77077848D01*
X108098398Y-76509250D01*
X108269206Y-76098941D01*
X108430603Y-75930172D01*
X108572473Y-75990487D01*
X108684695Y-76267427D01*
X108757151Y-76748535D01*
X108780000Y-77348407D01*
X108790601Y-77862535D01*
X108835560Y-78203608D01*
X108934606Y-78452151D01*
X109107471Y-78688690D01*
X109108789Y-78690256D01*
X109477454Y-78978903D01*
X109901387Y-79089941D01*
X110301016Y-79012318D01*
X110485428Y-78881429D01*
X110637935Y-78674040D01*
X110653319Y-78453919D01*
X110515339Y-78177169D01*
X110207756Y-77799892D01*
X110003731Y-77579322D01*
X109655639Y-77195307D01*
X109365720Y-76847078D01*
X109190181Y-76602603D01*
X109178231Y-76581100D01*
X109048708Y-76104520D01*
X109073955Y-75559643D01*
X109181352Y-75213549D01*
X109254407Y-74950825D01*
X109254959Y-74594176D01*
X109182432Y-74072450D01*
X109171587Y-74010970D01*
X109092553Y-73460942D01*
X109106131Y-73055803D01*
X109240492Y-72716538D01*
X109523808Y-72364130D01*
X109884026Y-72012740D01*
X110206393Y-71688762D01*
X110369524Y-71443244D01*
X110415484Y-71199748D01*
X110408190Y-71060240D01*
X110338071Y-70751284D01*
X110170313Y-70615593D01*
X110062796Y-70592434D01*
X109602689Y-70640755D01*
X109226120Y-70907258D01*
X108952901Y-71364249D01*
X108802849Y-71984031D01*
X108780000Y-72385393D01*
X108742192Y-72858766D01*
X108641226Y-73178977D01*
X108495782Y-73313481D01*
X108324545Y-73229737D01*
X108307276Y-73208817D01*
X108058671Y-72720155D01*
X107925928Y-72093815D01*
X107914596Y-71420912D01*
X108030221Y-70792562D01*
X108143079Y-70512267D01*
X108289292Y-70209922D01*
X108363579Y-70024982D01*
X108365329Y-70000283D01*
X108254460Y-69925329D01*
X107985445Y-69741166D01*
X107609278Y-69482728D01*
X107472165Y-69388370D01*
X107063966Y-69114777D01*
X106736048Y-68908799D01*
X106543428Y-68804526D01*
X106519665Y-68798187D01*
X106411095Y-68895973D01*
X106191759Y-69155533D01*
X105898498Y-69531936D01*
X105703548Y-69793581D01*
X104783351Y-71228139D01*
X104058058Y-72742023D01*
X103822942Y-73378046D01*
X103666828Y-73801129D01*
X103523304Y-74121566D01*
X103464558Y-74209355D01*
X103464558Y-73810500D01*
X103698460Y-73152826D01*
X104397440Y-71545263D01*
X105323936Y-70025558D01*
X105497215Y-69784559D01*
X105831100Y-69332544D01*
X106114048Y-68954161D01*
X106309186Y-68698458D01*
X106372953Y-68619635D01*
X106529322Y-68616000D01*
X106797584Y-68742196D01*
X106896965Y-68807695D01*
X107319500Y-69106621D01*
X106811500Y-68509975D01*
X106514694Y-68193689D01*
X106257682Y-67975765D01*
X106119471Y-67909165D01*
X105898068Y-68007456D01*
X105588629Y-68278364D01*
X105387403Y-68501143D01*
X105387403Y-68138529D01*
X105458377Y-68107628D01*
X105594717Y-67979752D01*
X105566749Y-67906237D01*
X105548995Y-67905000D01*
X105441576Y-67995206D01*
X105402372Y-68051623D01*
X105387403Y-68138529D01*
X105387403Y-68501143D01*
X105230558Y-68674788D01*
X104863259Y-69149629D01*
X104752403Y-69316068D01*
X104752403Y-68900529D01*
X104823377Y-68869628D01*
X104959717Y-68741752D01*
X104931749Y-68668237D01*
X104913995Y-68667000D01*
X104806576Y-68757206D01*
X104767372Y-68813623D01*
X104752403Y-68900529D01*
X104752403Y-69316068D01*
X104526134Y-69655788D01*
X104371403Y-69937098D01*
X104371403Y-69408529D01*
X104442377Y-69377628D01*
X104578717Y-69249752D01*
X104550749Y-69176237D01*
X104532995Y-69175000D01*
X104425576Y-69265206D01*
X104386372Y-69321623D01*
X104371403Y-69408529D01*
X104371403Y-69937098D01*
X104272532Y-70116852D01*
X104271500Y-70119350D01*
X104271500Y-69683000D01*
X104335000Y-69619500D01*
X104271500Y-69556000D01*
X104208000Y-69619500D01*
X104271500Y-69683000D01*
X104271500Y-70119350D01*
X104144500Y-70426771D01*
X104144500Y-69937000D01*
X104208000Y-69873500D01*
X104144500Y-69810000D01*
X104081000Y-69873500D01*
X104144500Y-69937000D01*
X104144500Y-70426771D01*
X104017500Y-70734192D01*
X104017500Y-70191000D01*
X104081000Y-70127500D01*
X104017500Y-70064000D01*
X103954000Y-70127500D01*
X104017500Y-70191000D01*
X104017500Y-70734192D01*
X103899571Y-71019656D01*
X103890500Y-71050403D01*
X103890500Y-70445000D01*
X103954000Y-70381500D01*
X103890500Y-70318000D01*
X103827000Y-70381500D01*
X103890500Y-70445000D01*
X103890500Y-71050403D01*
X103742333Y-71552640D01*
X103742333Y-70783667D01*
X103817834Y-70766234D01*
X103827000Y-70699000D01*
X103780532Y-70594465D01*
X103742333Y-70614334D01*
X103727133Y-70765053D01*
X103742333Y-70783667D01*
X103742333Y-71552640D01*
X103636500Y-71911379D01*
X103636500Y-71080000D01*
X103700000Y-71016500D01*
X103636500Y-70953000D01*
X103573000Y-71016500D01*
X103636500Y-71080000D01*
X103636500Y-71911379D01*
X103627565Y-71941666D01*
X103488333Y-72742195D01*
X103488333Y-71545667D01*
X103563834Y-71528234D01*
X103573000Y-71461000D01*
X103526532Y-71356465D01*
X103488333Y-71376334D01*
X103473133Y-71527053D01*
X103488333Y-71545667D01*
X103488333Y-72742195D01*
X103478518Y-72798628D01*
X103457156Y-73239000D01*
X103464558Y-73810500D01*
X103464558Y-74209355D01*
X103425561Y-74267632D01*
X103389144Y-74426761D01*
X103430502Y-74771236D01*
X103537359Y-75248905D01*
X103697439Y-75807612D01*
X103898465Y-76395206D01*
X103970993Y-76584776D01*
X104338467Y-77373500D01*
X104842086Y-78248245D01*
X105430819Y-79123332D01*
X105684703Y-79462000D01*
X105990456Y-79883190D01*
X106250436Y-80288656D01*
X106394701Y-80561754D01*
X106562990Y-80963007D01*
X106562990Y-81073488D01*
X106472811Y-81085211D01*
X106353582Y-80927664D01*
X106319777Y-80815141D01*
X106215061Y-80593520D01*
X105990352Y-80227117D01*
X105681460Y-79771754D01*
X105411518Y-79399297D01*
X104487756Y-78000168D01*
X103795349Y-76597583D01*
X103361333Y-75279471D01*
X103361333Y-72053667D01*
X103436834Y-72036234D01*
X103446000Y-71969000D01*
X103399532Y-71864465D01*
X103361333Y-71884334D01*
X103346133Y-72035053D01*
X103361333Y-72053667D01*
X103361333Y-75279471D01*
X103336506Y-75204071D01*
X103113438Y-73832162D01*
X103128353Y-72494388D01*
X103383462Y-71203278D01*
X103783481Y-70167125D01*
X104065504Y-69629450D01*
X104384834Y-69096591D01*
X104674105Y-68680683D01*
X104683865Y-68668358D01*
X105140519Y-68095500D01*
X104615251Y-68593138D01*
X104052022Y-69267019D01*
X103544995Y-70150771D01*
X103109682Y-71203548D01*
X102761591Y-72384503D01*
X102516233Y-73652787D01*
X102433955Y-74337891D01*
X102378715Y-75898111D01*
X102505636Y-77407449D01*
X102806930Y-78823983D01*
X103274804Y-80105786D01*
X103633870Y-80795500D01*
X104098833Y-81474325D01*
X104582330Y-81991915D01*
X105059365Y-82338131D01*
X105504941Y-82502837D01*
X105504941Y-82607013D01*
X105077475Y-82513940D01*
X104513212Y-82159489D01*
X103966964Y-81595743D01*
X103455818Y-80844797D01*
X102996860Y-79928745D01*
X102607177Y-78869684D01*
X102530316Y-78612284D01*
X102419640Y-78191549D01*
X102341792Y-77790198D01*
X102291519Y-77349897D01*
X102263571Y-76812314D01*
X102252696Y-76119114D01*
X102252386Y-75525000D01*
X102259254Y-74695363D01*
X102259254Y-74695363D01*
G37*
X102259254Y-74695363D02*
X102278675Y-74055600D01*
X102317141Y-73541661D01*
X102381149Y-73089490D01*
X102477193Y-72635038D01*
X102590089Y-72194574D01*
X102965281Y-71037326D01*
X103431459Y-69992345D01*
X103964893Y-69104534D01*
X104541856Y-68418797D01*
X104627488Y-68339014D01*
X105058375Y-67989511D01*
X105366879Y-67831457D01*
X105521935Y-67826288D01*
X105841820Y-67822942D01*
X106011761Y-67764213D01*
X106144820Y-67731427D01*
X106306856Y-67791657D01*
X106535295Y-67972386D01*
X106867565Y-68301095D01*
X107150966Y-68600723D01*
X107642671Y-69118760D01*
X108004029Y-69466608D01*
X108272942Y-69664361D01*
X108487314Y-69732115D01*
X108685048Y-69689962D01*
X108904047Y-69557999D01*
X108926576Y-69542061D01*
X109529698Y-69255077D01*
X110178253Y-69183643D01*
X110821785Y-69308099D01*
X111409843Y-69608788D01*
X111891972Y-70066053D01*
X112217718Y-70660236D01*
X112273431Y-70846050D01*
X112298370Y-71055413D01*
X112216287Y-71219544D01*
X111980849Y-71399971D01*
X111751887Y-71538606D01*
X111146112Y-71893614D01*
X112011259Y-72053288D01*
X112641768Y-72205722D01*
X113052798Y-72402608D01*
X113278160Y-72669428D01*
X113351666Y-73031663D01*
X113352000Y-73063716D01*
X113308357Y-73366855D01*
X113153253Y-73568258D01*
X112850420Y-73683219D01*
X112363595Y-73727033D01*
X111953423Y-73722224D01*
X111953423Y-73620000D01*
X112598268Y-73571245D01*
X113020243Y-73428447D01*
X113214000Y-73196814D01*
X113174194Y-72881548D01*
X112996814Y-72604343D01*
X112796358Y-72432891D01*
X112487636Y-72320419D01*
X112002595Y-72243608D01*
X111917314Y-72234431D01*
X111450595Y-72203576D01*
X111163153Y-72216638D01*
X111072615Y-72261132D01*
X111196612Y-72324571D01*
X111552774Y-72394468D01*
X111669250Y-72410129D01*
X112291692Y-72536305D01*
X112707452Y-72727675D01*
X112897388Y-72974295D01*
X112907500Y-73053370D01*
X112882082Y-73180220D01*
X112771641Y-73259171D01*
X112524895Y-73305078D01*
X112090562Y-73332794D01*
X111919102Y-73339667D01*
X111373165Y-73381205D01*
X111076508Y-73445010D01*
X111027234Y-73515588D01*
X111223447Y-73577444D01*
X111663249Y-73615083D01*
X111953423Y-73620000D01*
X111953423Y-73722224D01*
X111795038Y-73720367D01*
X111278915Y-73696652D01*
X110966625Y-73660933D01*
X110808009Y-73599270D01*
X110752908Y-73497722D01*
X110748500Y-73429500D01*
X110770996Y-73299633D01*
X110873578Y-73223435D01*
X111108881Y-73186869D01*
X111529543Y-73175899D01*
X111701000Y-73175500D01*
X112164702Y-73159781D01*
X112518216Y-73118234D01*
X112695150Y-73059276D01*
X112702750Y-73048500D01*
X112647581Y-72889758D01*
X112393693Y-72749787D01*
X111996365Y-72648578D01*
X111510874Y-72606120D01*
X111478750Y-72605873D01*
X111025973Y-72574876D01*
X110818322Y-72485377D01*
X110803949Y-72445250D01*
X110761318Y-72414340D01*
X110693085Y-72540500D01*
X110645157Y-72780111D01*
X110602418Y-73213385D01*
X110567467Y-73780003D01*
X110542905Y-74419641D01*
X110531333Y-75071978D01*
X110535351Y-75676691D01*
X110545259Y-75969500D01*
X110568667Y-76327886D01*
X110603948Y-76463635D01*
X110666586Y-76408083D01*
X110715293Y-76313617D01*
X110902919Y-76083936D01*
X111095787Y-76083590D01*
X111245574Y-76293627D01*
X111297715Y-76542041D01*
X111444647Y-77038179D01*
X111753000Y-77390023D01*
X112178285Y-77551562D01*
X112279087Y-77557000D01*
X112688024Y-77472908D01*
X112909776Y-77236670D01*
X112922237Y-76872348D01*
X112919262Y-76860150D01*
X112772818Y-76599289D01*
X112562715Y-76565249D01*
X112352776Y-76765158D01*
X112336000Y-76795000D01*
X112156442Y-76975269D01*
X111928806Y-77045448D01*
X111748314Y-76993449D01*
X111701000Y-76875628D01*
X111784317Y-76632920D01*
X111983031Y-76350656D01*
X112220279Y-76120349D01*
X112408717Y-76033000D01*
X112571723Y-75961409D01*
X112590000Y-75906000D01*
X112472627Y-75840712D01*
X112380308Y-75827470D01*
X112380308Y-75634771D01*
X112746774Y-75633970D01*
X112996244Y-75613729D01*
X113060962Y-75572636D01*
X113060574Y-75572242D01*
X112900016Y-75515701D01*
X112567278Y-75452006D01*
X112245657Y-75408426D01*
X111510500Y-75324370D01*
X112209000Y-74965127D01*
X112769035Y-74660707D01*
X113090972Y-74437381D01*
X113171840Y-74283801D01*
X113008667Y-74188618D01*
X112598483Y-74140485D01*
X111989838Y-74128000D01*
X111418990Y-74140529D01*
X111095190Y-74174273D01*
X111019978Y-74223470D01*
X111194890Y-74282359D01*
X111621465Y-74345176D01*
X111923706Y-74375725D01*
X112780500Y-74453203D01*
X111828000Y-74950278D01*
X111371264Y-75191754D01*
X111113963Y-75344237D01*
X111029606Y-75434814D01*
X111091704Y-75490572D01*
X111256500Y-75534651D01*
X111567415Y-75583700D01*
X111964603Y-75617544D01*
X112380308Y-75634771D01*
X112380308Y-75827470D01*
X112158447Y-75795646D01*
X111708495Y-75779000D01*
X111132445Y-75743669D01*
X110800244Y-75641899D01*
X110712388Y-75480029D01*
X110869375Y-75264397D01*
X111271703Y-75001340D01*
X111633419Y-74822303D01*
X112272500Y-74529811D01*
X111542250Y-74519406D01*
X111131036Y-74506173D01*
X110912880Y-74462751D01*
X110826849Y-74360984D01*
X110812000Y-74181966D01*
X110812000Y-73854932D01*
X111986750Y-73942642D01*
X112513802Y-73991736D01*
X112944912Y-74050033D01*
X113216989Y-74108144D01*
X113273613Y-74134140D01*
X113341363Y-74335372D01*
X113180019Y-74576433D01*
X112806949Y-74835719D01*
X112640750Y-74921399D01*
X112048260Y-75207500D01*
X112667277Y-75271000D01*
X113071070Y-75338465D01*
X113276091Y-75450041D01*
X113330193Y-75565752D01*
X113267338Y-75787825D01*
X113125363Y-75862047D01*
X112970315Y-75919305D01*
X112979216Y-76013597D01*
X113161692Y-76212132D01*
X113177817Y-76228273D01*
X113424495Y-76639849D01*
X113467135Y-77124808D01*
X113303700Y-77602543D01*
X113215782Y-77730373D01*
X112859989Y-77993186D01*
X112386438Y-78089258D01*
X112182496Y-78061578D01*
X112182496Y-77915332D01*
X112652700Y-77879310D01*
X112905040Y-77760791D01*
X113119567Y-77565066D01*
X113211059Y-77290834D01*
X113225000Y-77007973D01*
X113191301Y-76634591D01*
X113107088Y-76361011D01*
X113072600Y-76312400D01*
X112786882Y-76181358D01*
X112448526Y-76221859D01*
X112147341Y-76395958D01*
X111973137Y-76665714D01*
X111958861Y-76782934D01*
X111979679Y-76909714D01*
X112061192Y-76815511D01*
X112091300Y-76764808D01*
X112309139Y-76523015D01*
X112476557Y-76406745D01*
X112755327Y-76355361D01*
X112964296Y-76489539D01*
X113087619Y-76746638D01*
X113109452Y-77064017D01*
X113013951Y-77379036D01*
X112785661Y-77628797D01*
X112366029Y-77770289D01*
X111931598Y-77697549D01*
X111533310Y-77441689D01*
X111222109Y-77033823D01*
X111061061Y-76575512D01*
X110968209Y-76096500D01*
X110953604Y-76570747D01*
X111047395Y-77059672D01*
X111322022Y-77470252D01*
X111719662Y-77767226D01*
X112182496Y-77915332D01*
X112182496Y-78061578D01*
X111868636Y-78018978D01*
X111380095Y-77782735D01*
X111297994Y-77720221D01*
X111056655Y-77528519D01*
X110991491Y-77497129D01*
X111085594Y-77621328D01*
X111129500Y-77673178D01*
X111407390Y-77910689D01*
X111793822Y-78143127D01*
X111923250Y-78203945D01*
X112244297Y-78374950D01*
X112436904Y-78540113D01*
X112461759Y-78600237D01*
X112410294Y-78798966D01*
X112278920Y-79139465D01*
X112153476Y-79422967D01*
X111794544Y-79979567D01*
X111293309Y-80371751D01*
X110605180Y-80633157D01*
X110521491Y-80654093D01*
X110149607Y-80667146D01*
X110149607Y-80476872D01*
X110779313Y-80380339D01*
X111345068Y-80119975D01*
X111785951Y-79709903D01*
X111954076Y-79423564D01*
X112131302Y-78975378D01*
X112165495Y-78681327D01*
X112040308Y-78475394D01*
X111739393Y-78291563D01*
X111664830Y-78255500D01*
X111095304Y-77856122D01*
X110875500Y-77540033D01*
X110875500Y-77303000D01*
X110939000Y-77239500D01*
X110875500Y-77176000D01*
X110812000Y-77239500D01*
X110875500Y-77303000D01*
X110875500Y-77540033D01*
X110748500Y-77357401D01*
X110748500Y-77049000D01*
X110812000Y-76985500D01*
X110748500Y-76922000D01*
X110685000Y-76985500D01*
X110748500Y-77049000D01*
X110748500Y-77357401D01*
X110688770Y-77271506D01*
X110439945Y-76501417D01*
X110379481Y-76172446D01*
X110339219Y-75856097D01*
X110317147Y-75497947D01*
X110311255Y-75043574D01*
X110319529Y-74438556D01*
X110337309Y-73724564D01*
X110390975Y-73022483D01*
X110532939Y-72483528D01*
X110800670Y-72048949D01*
X111231636Y-71659998D01*
X111863305Y-71257926D01*
X111937458Y-71215582D01*
X112050881Y-71021511D01*
X112017058Y-70704315D01*
X111856212Y-70331840D01*
X111588567Y-69971934D01*
X111557148Y-69939687D01*
X111007862Y-69548108D01*
X110400960Y-69374147D01*
X109782411Y-69403502D01*
X109198182Y-69621873D01*
X108694244Y-70014960D01*
X108316563Y-70568460D01*
X108163551Y-70995439D01*
X108106216Y-71446253D01*
X108115887Y-71984481D01*
X108183376Y-72507556D01*
X108299495Y-72912911D01*
X108342850Y-72996895D01*
X108465200Y-73093419D01*
X108553668Y-72982850D01*
X108590023Y-72711615D01*
X108570359Y-72417527D01*
X108580608Y-71862505D01*
X108740577Y-71341419D01*
X109014448Y-70894719D01*
X109366402Y-70562857D01*
X109760621Y-70386284D01*
X110161285Y-70405452D01*
X110297786Y-70466673D01*
X110519538Y-70647259D01*
X110602225Y-70908088D01*
X110605513Y-71136667D01*
X110568455Y-71426936D01*
X110449935Y-71679308D01*
X110206042Y-71964503D01*
X109924734Y-72233013D01*
X109259941Y-72844189D01*
X109347485Y-73962345D01*
X109379618Y-74703976D01*
X109345496Y-75238403D01*
X109292769Y-75451813D01*
X109205633Y-75865119D01*
X109281106Y-76282653D01*
X109535889Y-76746199D01*
X109986683Y-77297542D01*
X110064130Y-77381690D01*
X110522432Y-77926553D01*
X110768482Y-78360492D01*
X110805844Y-78706521D01*
X110638083Y-78987651D01*
X110344099Y-79188988D01*
X109916634Y-79323682D01*
X109518643Y-79237413D01*
X109100663Y-78918954D01*
X109084800Y-78903201D01*
X108860785Y-78662826D01*
X108730764Y-78446768D01*
X108668310Y-78173163D01*
X108646996Y-77760150D01*
X108644073Y-77537951D01*
X108626203Y-77041398D01*
X108587669Y-76618950D01*
X108536612Y-76358199D01*
X108533687Y-76350500D01*
X108464560Y-76246621D01*
X108388430Y-76318140D01*
X108284385Y-76594591D01*
X108225113Y-76786301D01*
X108054310Y-77659006D01*
X108066644Y-78481502D01*
X108253109Y-79211883D01*
X108604699Y-79808244D01*
X108942024Y-80121940D01*
X109516870Y-80395447D01*
X110149607Y-80476872D01*
X110149607Y-80667146D01*
X110070420Y-80669926D01*
X109525414Y-80558747D01*
X108994008Y-80348226D01*
X108740365Y-80195778D01*
X108380902Y-79939818D01*
X108040701Y-80251605D01*
X107743195Y-80522546D01*
X107368299Y-80861763D01*
X107175223Y-81035705D01*
X106863567Y-81368395D01*
X106640663Y-81703199D01*
X106578209Y-81866702D01*
X106387566Y-82318982D01*
X106036259Y-82574546D01*
X105642668Y-82637000D01*
X105504941Y-82607013D01*
X105504941Y-82502837D01*
X105894060Y-82475895D01*
X106201726Y-82247167D01*
X106374131Y-81906808D01*
X106576507Y-81511987D01*
X106882370Y-81138152D01*
X106955499Y-81072004D01*
X107248283Y-80809794D01*
X107368117Y-80667769D01*
X107310655Y-80662361D01*
X107071548Y-80810006D01*
X107014144Y-80850353D01*
X106677211Y-81058640D01*
X106562990Y-81073488D01*
X106562990Y-80963007D01*
X107398220Y-80340798D01*
X108233451Y-79718588D01*
X107988272Y-78992342D01*
X107837053Y-78378988D01*
X107818044Y-77767051D01*
X107934734Y-77077848D01*
X108098398Y-76509250D01*
X108269206Y-76098941D01*
X108430603Y-75930172D01*
X108572473Y-75990487D01*
X108684695Y-76267427D01*
X108757151Y-76748535D01*
X108780000Y-77348407D01*
X108790601Y-77862535D01*
X108835560Y-78203608D01*
X108934606Y-78452151D01*
X109107471Y-78688690D01*
X109108789Y-78690256D01*
X109477454Y-78978903D01*
X109901387Y-79089941D01*
X110301016Y-79012318D01*
X110485428Y-78881429D01*
X110637935Y-78674040D01*
X110653319Y-78453919D01*
X110515339Y-78177169D01*
X110207756Y-77799892D01*
X110003731Y-77579322D01*
X109655639Y-77195307D01*
X109365720Y-76847078D01*
X109190181Y-76602603D01*
X109178231Y-76581100D01*
X109048708Y-76104520D01*
X109073955Y-75559643D01*
X109181352Y-75213549D01*
X109254407Y-74950825D01*
X109254959Y-74594176D01*
X109182432Y-74072450D01*
X109171587Y-74010970D01*
X109092553Y-73460942D01*
X109106131Y-73055803D01*
X109240492Y-72716538D01*
X109523808Y-72364130D01*
X109884026Y-72012740D01*
X110206393Y-71688762D01*
X110369524Y-71443244D01*
X110415484Y-71199748D01*
X110408190Y-71060240D01*
X110338071Y-70751284D01*
X110170313Y-70615593D01*
X110062796Y-70592434D01*
X109602689Y-70640755D01*
X109226120Y-70907258D01*
X108952901Y-71364249D01*
X108802849Y-71984031D01*
X108780000Y-72385393D01*
X108742192Y-72858766D01*
X108641226Y-73178977D01*
X108495782Y-73313481D01*
X108324545Y-73229737D01*
X108307276Y-73208817D01*
X108058671Y-72720155D01*
X107925928Y-72093815D01*
X107914596Y-71420912D01*
X108030221Y-70792562D01*
X108143079Y-70512267D01*
X108289292Y-70209922D01*
X108363579Y-70024982D01*
X108365329Y-70000283D01*
X108254460Y-69925329D01*
X107985445Y-69741166D01*
X107609278Y-69482728D01*
X107472165Y-69388370D01*
X107063966Y-69114777D01*
X106736048Y-68908799D01*
X106543428Y-68804526D01*
X106519665Y-68798187D01*
X106411095Y-68895973D01*
X106191759Y-69155533D01*
X105898498Y-69531936D01*
X105703548Y-69793581D01*
X104783351Y-71228139D01*
X104058058Y-72742023D01*
X103822942Y-73378046D01*
X103666828Y-73801129D01*
X103523304Y-74121566D01*
X103464558Y-74209355D01*
X103464558Y-73810500D01*
X103698460Y-73152826D01*
X104397440Y-71545263D01*
X105323936Y-70025558D01*
X105497215Y-69784559D01*
X105831100Y-69332544D01*
X106114048Y-68954161D01*
X106309186Y-68698458D01*
X106372953Y-68619635D01*
X106529322Y-68616000D01*
X106797584Y-68742196D01*
X106896965Y-68807695D01*
X107319500Y-69106621D01*
X106811500Y-68509975D01*
X106514694Y-68193689D01*
X106257682Y-67975765D01*
X106119471Y-67909165D01*
X105898068Y-68007456D01*
X105588629Y-68278364D01*
X105387403Y-68501143D01*
X105387403Y-68138529D01*
X105458377Y-68107628D01*
X105594717Y-67979752D01*
X105566749Y-67906237D01*
X105548995Y-67905000D01*
X105441576Y-67995206D01*
X105402372Y-68051623D01*
X105387403Y-68138529D01*
X105387403Y-68501143D01*
X105230558Y-68674788D01*
X104863259Y-69149629D01*
X104752403Y-69316068D01*
X104752403Y-68900529D01*
X104823377Y-68869628D01*
X104959717Y-68741752D01*
X104931749Y-68668237D01*
X104913995Y-68667000D01*
X104806576Y-68757206D01*
X104767372Y-68813623D01*
X104752403Y-68900529D01*
X104752403Y-69316068D01*
X104526134Y-69655788D01*
X104371403Y-69937098D01*
X104371403Y-69408529D01*
X104442377Y-69377628D01*
X104578717Y-69249752D01*
X104550749Y-69176237D01*
X104532995Y-69175000D01*
X104425576Y-69265206D01*
X104386372Y-69321623D01*
X104371403Y-69408529D01*
X104371403Y-69937098D01*
X104272532Y-70116852D01*
X104271500Y-70119350D01*
X104271500Y-69683000D01*
X104335000Y-69619500D01*
X104271500Y-69556000D01*
X104208000Y-69619500D01*
X104271500Y-69683000D01*
X104271500Y-70119350D01*
X104144500Y-70426771D01*
X104144500Y-69937000D01*
X104208000Y-69873500D01*
X104144500Y-69810000D01*
X104081000Y-69873500D01*
X104144500Y-69937000D01*
X104144500Y-70426771D01*
X104017500Y-70734192D01*
X104017500Y-70191000D01*
X104081000Y-70127500D01*
X104017500Y-70064000D01*
X103954000Y-70127500D01*
X104017500Y-70191000D01*
X104017500Y-70734192D01*
X103899571Y-71019656D01*
X103890500Y-71050403D01*
X103890500Y-70445000D01*
X103954000Y-70381500D01*
X103890500Y-70318000D01*
X103827000Y-70381500D01*
X103890500Y-70445000D01*
X103890500Y-71050403D01*
X103742333Y-71552640D01*
X103742333Y-70783667D01*
X103817834Y-70766234D01*
X103827000Y-70699000D01*
X103780532Y-70594465D01*
X103742333Y-70614334D01*
X103727133Y-70765053D01*
X103742333Y-70783667D01*
X103742333Y-71552640D01*
X103636500Y-71911379D01*
X103636500Y-71080000D01*
X103700000Y-71016500D01*
X103636500Y-70953000D01*
X103573000Y-71016500D01*
X103636500Y-71080000D01*
X103636500Y-71911379D01*
X103627565Y-71941666D01*
X103488333Y-72742195D01*
X103488333Y-71545667D01*
X103563834Y-71528234D01*
X103573000Y-71461000D01*
X103526532Y-71356465D01*
X103488333Y-71376334D01*
X103473133Y-71527053D01*
X103488333Y-71545667D01*
X103488333Y-72742195D01*
X103478518Y-72798628D01*
X103457156Y-73239000D01*
X103464558Y-73810500D01*
X103464558Y-74209355D01*
X103425561Y-74267632D01*
X103389144Y-74426761D01*
X103430502Y-74771236D01*
X103537359Y-75248905D01*
X103697439Y-75807612D01*
X103898465Y-76395206D01*
X103970993Y-76584776D01*
X104338467Y-77373500D01*
X104842086Y-78248245D01*
X105430819Y-79123332D01*
X105684703Y-79462000D01*
X105990456Y-79883190D01*
X106250436Y-80288656D01*
X106394701Y-80561754D01*
X106562990Y-80963007D01*
X106562990Y-81073488D01*
X106472811Y-81085211D01*
X106353582Y-80927664D01*
X106319777Y-80815141D01*
X106215061Y-80593520D01*
X105990352Y-80227117D01*
X105681460Y-79771754D01*
X105411518Y-79399297D01*
X104487756Y-78000168D01*
X103795349Y-76597583D01*
X103361333Y-75279471D01*
X103361333Y-72053667D01*
X103436834Y-72036234D01*
X103446000Y-71969000D01*
X103399532Y-71864465D01*
X103361333Y-71884334D01*
X103346133Y-72035053D01*
X103361333Y-72053667D01*
X103361333Y-75279471D01*
X103336506Y-75204071D01*
X103113438Y-73832162D01*
X103128353Y-72494388D01*
X103383462Y-71203278D01*
X103783481Y-70167125D01*
X104065504Y-69629450D01*
X104384834Y-69096591D01*
X104674105Y-68680683D01*
X104683865Y-68668358D01*
X105140519Y-68095500D01*
X104615251Y-68593138D01*
X104052022Y-69267019D01*
X103544995Y-70150771D01*
X103109682Y-71203548D01*
X102761591Y-72384503D01*
X102516233Y-73652787D01*
X102433955Y-74337891D01*
X102378715Y-75898111D01*
X102505636Y-77407449D01*
X102806930Y-78823983D01*
X103274804Y-80105786D01*
X103633870Y-80795500D01*
X104098833Y-81474325D01*
X104582330Y-81991915D01*
X105059365Y-82338131D01*
X105504941Y-82502837D01*
X105504941Y-82607013D01*
X105077475Y-82513940D01*
X104513212Y-82159489D01*
X103966964Y-81595743D01*
X103455818Y-80844797D01*
X102996860Y-79928745D01*
X102607177Y-78869684D01*
X102530316Y-78612284D01*
X102419640Y-78191549D01*
X102341792Y-77790198D01*
X102291519Y-77349897D01*
X102263571Y-76812314D01*
X102252696Y-76119114D01*
X102252386Y-75525000D01*
X102259254Y-74695363D01*
G36*
X113478034Y-72556447D02*
X113491210Y-72219900D01*
X113518051Y-72019150D01*
X113560132Y-71924674D01*
X113619029Y-71906948D01*
X113652004Y-71916360D01*
X113744680Y-71988275D01*
X113805757Y-72148541D01*
X113841389Y-72441184D01*
X113857733Y-72910228D01*
X113861042Y-73411338D01*
X113875659Y-74157499D01*
X113914831Y-74970269D01*
X113973058Y-75780288D01*
X114044840Y-76518192D01*
X114124677Y-77114622D01*
X114175999Y-77383757D01*
X114156136Y-77623115D01*
X113985908Y-77721084D01*
X113915409Y-77720063D01*
X113915409Y-77411217D01*
X113925949Y-77217380D01*
X113899413Y-76858500D01*
X113852779Y-76446330D01*
X113807455Y-76148996D01*
X113778859Y-76043584D01*
X113742286Y-76095999D01*
X113734106Y-76322171D01*
X113749384Y-76644051D01*
X113783189Y-76983592D01*
X113830586Y-77262745D01*
X113862479Y-77366500D01*
X113915409Y-77411217D01*
X113915409Y-77720063D01*
X113744493Y-77717586D01*
X113654284Y-77654842D01*
X113654284Y-74794868D01*
X113667405Y-74751243D01*
X113677162Y-74493133D01*
X113682532Y-74040291D01*
X113683251Y-73747000D01*
X113680460Y-73204196D01*
X113672769Y-72846245D01*
X113661202Y-72692901D01*
X113646782Y-72763921D01*
X113638823Y-72889750D01*
X113621641Y-73515115D01*
X113625078Y-74203767D01*
X113638823Y-74604250D01*
X113654284Y-74794868D01*
X113654284Y-77654842D01*
X113649362Y-77651418D01*
X113622442Y-77489830D01*
X113593577Y-77112551D01*
X113564629Y-76557858D01*
X113537458Y-75864030D01*
X113513925Y-75069348D01*
X113504740Y-74676113D01*
X113486375Y-73755030D01*
X113476948Y-73058316D01*
X113478034Y-72556447D01*
X113478034Y-72556447D01*
G37*
X113478034Y-72556447D02*
X113491210Y-72219900D01*
X113518051Y-72019150D01*
X113560132Y-71924674D01*
X113619029Y-71906948D01*
X113652004Y-71916360D01*
X113744680Y-71988275D01*
X113805757Y-72148541D01*
X113841389Y-72441184D01*
X113857733Y-72910228D01*
X113861042Y-73411338D01*
X113875659Y-74157499D01*
X113914831Y-74970269D01*
X113973058Y-75780288D01*
X114044840Y-76518192D01*
X114124677Y-77114622D01*
X114175999Y-77383757D01*
X114156136Y-77623115D01*
X113985908Y-77721084D01*
X113915409Y-77720063D01*
X113915409Y-77411217D01*
X113925949Y-77217380D01*
X113899413Y-76858500D01*
X113852779Y-76446330D01*
X113807455Y-76148996D01*
X113778859Y-76043584D01*
X113742286Y-76095999D01*
X113734106Y-76322171D01*
X113749384Y-76644051D01*
X113783189Y-76983592D01*
X113830586Y-77262745D01*
X113862479Y-77366500D01*
X113915409Y-77411217D01*
X113915409Y-77720063D01*
X113744493Y-77717586D01*
X113654284Y-77654842D01*
X113654284Y-74794868D01*
X113667405Y-74751243D01*
X113677162Y-74493133D01*
X113682532Y-74040291D01*
X113683251Y-73747000D01*
X113680460Y-73204196D01*
X113672769Y-72846245D01*
X113661202Y-72692901D01*
X113646782Y-72763921D01*
X113638823Y-72889750D01*
X113621641Y-73515115D01*
X113625078Y-74203767D01*
X113638823Y-74604250D01*
X113654284Y-74794868D01*
X113654284Y-77654842D01*
X113649362Y-77651418D01*
X113622442Y-77489830D01*
X113593577Y-77112551D01*
X113564629Y-76557858D01*
X113537458Y-75864030D01*
X113513925Y-75069348D01*
X113504740Y-74676113D01*
X113486375Y-73755030D01*
X113476948Y-73058316D01*
X113478034Y-72556447D01*
D11*
X145330000Y-95030000D02*
X152950000Y-95030000D01*
X145330000Y-100110000D02*
X145330000Y-95030000D01*
X152950000Y-100110000D02*
X145330000Y-100110000D01*
X152950000Y-95030000D02*
X152950000Y-100110000D01*
X142930000Y-86420000D02*
X142930000Y-94040000D01*
X137850000Y-86420000D02*
X142930000Y-86420000D01*
X137850000Y-94040000D02*
X137850000Y-86420000D01*
X142930000Y-94040000D02*
X137850000Y-94040000D01*
X137670000Y-86420000D02*
X137670000Y-94040000D01*
X132590000Y-86420000D02*
X137670000Y-86420000D01*
X132590000Y-94040000D02*
X132590000Y-86420000D01*
X137670000Y-94040000D02*
X132590000Y-94040000D01*
X132410000Y-86420000D02*
X132410000Y-94040000D01*
X127330000Y-86420000D02*
X132410000Y-86420000D01*
X127330000Y-94040000D02*
X127330000Y-86420000D01*
X132410000Y-94040000D02*
X127330000Y-94040000D01*
X145330000Y-88970000D02*
X152950000Y-88970000D01*
X145330000Y-94050000D02*
X145330000Y-88970000D01*
X152950000Y-94050000D02*
X145330000Y-94050000D01*
X152950000Y-88970000D02*
X152950000Y-94050000D01*
X149422380Y-97736666D02*
X148946190Y-98070000D01*
X149422380Y-98308095D02*
X148422380Y-98308095D01*
X148422380Y-97927142D01*
X148470000Y-97831904D01*
X148517619Y-97784285D01*
X148612857Y-97736666D01*
X148755714Y-97736666D01*
X148850952Y-97784285D01*
X148898571Y-97831904D01*
X148946190Y-97927142D01*
X148946190Y-98308095D01*
X149422380Y-96784285D02*
X149422380Y-97355714D01*
X149422380Y-97070000D02*
X148422380Y-97070000D01*
X148565238Y-97165238D01*
X148660476Y-97260476D01*
X148708095Y-97355714D01*
X140233333Y-90652380D02*
X139900000Y-90176190D01*
X139661904Y-90652380D02*
X139661904Y-89652380D01*
X140042857Y-89652380D01*
X140138095Y-89700000D01*
X140185714Y-89747619D01*
X140233333Y-89842857D01*
X140233333Y-89985714D01*
X140185714Y-90080952D01*
X140138095Y-90128571D01*
X140042857Y-90176190D01*
X139661904Y-90176190D01*
X140566666Y-89652380D02*
X141185714Y-89652380D01*
X140852380Y-90033333D01*
X140995238Y-90033333D01*
X141090476Y-90080952D01*
X141138095Y-90128571D01*
X141185714Y-90223809D01*
X141185714Y-90461904D01*
X141138095Y-90557142D01*
X141090476Y-90604761D01*
X140995238Y-90652380D01*
X140709523Y-90652380D01*
X140614285Y-90604761D01*
X140566666Y-90557142D01*
X134933333Y-90652380D02*
X134600000Y-90176190D01*
X134361904Y-90652380D02*
X134361904Y-89652380D01*
X134742857Y-89652380D01*
X134838095Y-89700000D01*
X134885714Y-89747619D01*
X134933333Y-89842857D01*
X134933333Y-89985714D01*
X134885714Y-90080952D01*
X134838095Y-90128571D01*
X134742857Y-90176190D01*
X134361904Y-90176190D01*
X135790476Y-89985714D02*
X135790476Y-90652380D01*
X135552380Y-89604761D02*
X135314285Y-90319047D01*
X135933333Y-90319047D01*
X129513333Y-90822380D02*
X129180000Y-90346190D01*
X128941904Y-90822380D02*
X128941904Y-89822380D01*
X129322857Y-89822380D01*
X129418095Y-89870000D01*
X129465714Y-89917619D01*
X129513333Y-90012857D01*
X129513333Y-90155714D01*
X129465714Y-90250952D01*
X129418095Y-90298571D01*
X129322857Y-90346190D01*
X128941904Y-90346190D01*
X130418095Y-89822380D02*
X129941904Y-89822380D01*
X129894285Y-90298571D01*
X129941904Y-90250952D01*
X130037142Y-90203333D01*
X130275238Y-90203333D01*
X130370476Y-90250952D01*
X130418095Y-90298571D01*
X130465714Y-90393809D01*
X130465714Y-90631904D01*
X130418095Y-90727142D01*
X130370476Y-90774761D01*
X130275238Y-90822380D01*
X130037142Y-90822380D01*
X129941904Y-90774761D01*
X129894285Y-90727142D01*
X149682380Y-91676666D02*
X149206190Y-92010000D01*
X149682380Y-92248095D02*
X148682380Y-92248095D01*
X148682380Y-91867142D01*
X148730000Y-91771904D01*
X148777619Y-91724285D01*
X148872857Y-91676666D01*
X149015714Y-91676666D01*
X149110952Y-91724285D01*
X149158571Y-91771904D01*
X149206190Y-91867142D01*
X149206190Y-92248095D01*
X148777619Y-91295714D02*
X148730000Y-91248095D01*
X148682380Y-91152857D01*
X148682380Y-90914761D01*
X148730000Y-90819523D01*
X148777619Y-90771904D01*
X148872857Y-90724285D01*
X148968095Y-90724285D01*
X149110952Y-90771904D01*
X149682380Y-91343333D01*
X149682380Y-90724285D01*
X118347142Y-81650000D02*
X118251904Y-81602380D01*
X118109047Y-81602380D01*
X117966190Y-81650000D01*
X117870952Y-81745238D01*
X117823333Y-81840476D01*
X117775714Y-82030952D01*
X117775714Y-82173809D01*
X117823333Y-82364285D01*
X117870952Y-82459523D01*
X117966190Y-82554761D01*
X118109047Y-82602380D01*
X118204285Y-82602380D01*
X118347142Y-82554761D01*
X118394761Y-82507142D01*
X118394761Y-82173809D01*
X118204285Y-82173809D01*
X118823333Y-81935714D02*
X118823333Y-82602380D01*
X118823333Y-82030952D02*
X118870952Y-81983333D01*
X118966190Y-81935714D01*
X119109047Y-81935714D01*
X119204285Y-81983333D01*
X119251904Y-82078571D01*
X119251904Y-82602380D01*
X120156666Y-82602380D02*
X120156666Y-81602380D01*
X120156666Y-82554761D02*
X120061428Y-82602380D01*
X119870952Y-82602380D01*
X119775714Y-82554761D01*
X119728095Y-82507142D01*
X119680476Y-82411904D01*
X119680476Y-82126190D01*
X119728095Y-82030952D01*
X119775714Y-81983333D01*
X119870952Y-81935714D01*
X120061428Y-81935714D01*
X120156666Y-81983333D01*
X117775714Y-89384761D02*
X117918571Y-89432380D01*
X118156666Y-89432380D01*
X118251904Y-89384761D01*
X118299523Y-89337142D01*
X118347142Y-89241904D01*
X118347142Y-89146666D01*
X118299523Y-89051428D01*
X118251904Y-89003809D01*
X118156666Y-88956190D01*
X117966190Y-88908571D01*
X117870952Y-88860952D01*
X117823333Y-88813333D01*
X117775714Y-88718095D01*
X117775714Y-88622857D01*
X117823333Y-88527619D01*
X117870952Y-88480000D01*
X117966190Y-88432380D01*
X118204285Y-88432380D01*
X118347142Y-88480000D01*
X118775714Y-89432380D02*
X118775714Y-88432380D01*
X119013809Y-88432380D01*
X119156666Y-88480000D01*
X119251904Y-88575238D01*
X119299523Y-88670476D01*
X119347142Y-88860952D01*
X119347142Y-89003809D01*
X119299523Y-89194285D01*
X119251904Y-89289523D01*
X119156666Y-89384761D01*
X119013809Y-89432380D01*
X118775714Y-89432380D01*
X119728095Y-89146666D02*
X120204285Y-89146666D01*
X119632857Y-89432380D02*
X119966190Y-88432380D01*
X120299523Y-89432380D01*
X117819523Y-92974761D02*
X117962380Y-93022380D01*
X118200476Y-93022380D01*
X118295714Y-92974761D01*
X118343333Y-92927142D01*
X118390952Y-92831904D01*
X118390952Y-92736666D01*
X118343333Y-92641428D01*
X118295714Y-92593809D01*
X118200476Y-92546190D01*
X118010000Y-92498571D01*
X117914761Y-92450952D01*
X117867142Y-92403333D01*
X117819523Y-92308095D01*
X117819523Y-92212857D01*
X117867142Y-92117619D01*
X117914761Y-92070000D01*
X118010000Y-92022380D01*
X118248095Y-92022380D01*
X118390952Y-92070000D01*
X119390952Y-92927142D02*
X119343333Y-92974761D01*
X119200476Y-93022380D01*
X119105238Y-93022380D01*
X118962380Y-92974761D01*
X118867142Y-92879523D01*
X118819523Y-92784285D01*
X118771904Y-92593809D01*
X118771904Y-92450952D01*
X118819523Y-92260476D01*
X118867142Y-92165238D01*
X118962380Y-92070000D01*
X119105238Y-92022380D01*
X119200476Y-92022380D01*
X119343333Y-92070000D01*
X119390952Y-92117619D01*
X120295714Y-93022380D02*
X119819523Y-93022380D01*
X119819523Y-92022380D01*
X117581428Y-97122380D02*
X118200476Y-97122380D01*
X117867142Y-97503333D01*
X118010000Y-97503333D01*
X118105238Y-97550952D01*
X118152857Y-97598571D01*
X118200476Y-97693809D01*
X118200476Y-97931904D01*
X118152857Y-98027142D01*
X118105238Y-98074761D01*
X118010000Y-98122380D01*
X117724285Y-98122380D01*
X117629047Y-98074761D01*
X117581428Y-98027142D01*
X118629047Y-98027142D02*
X118676666Y-98074761D01*
X118629047Y-98122380D01*
X118581428Y-98074761D01*
X118629047Y-98027142D01*
X118629047Y-98122380D01*
X119010000Y-97122380D02*
X119629047Y-97122380D01*
X119295714Y-97503333D01*
X119438571Y-97503333D01*
X119533809Y-97550952D01*
X119581428Y-97598571D01*
X119629047Y-97693809D01*
X119629047Y-97931904D01*
X119581428Y-98027142D01*
X119533809Y-98074761D01*
X119438571Y-98122380D01*
X119152857Y-98122380D01*
X119057619Y-98074761D01*
X119010000Y-98027142D01*
X119962380Y-97455714D02*
X120200476Y-98122380D01*
X120438571Y-97455714D01*
M02*
