M48
;DRILL file {KiCad (5.0.0)} date 07/16/19 15:39:39
;FORMAT={-:-/ absolute / metric / decimal}
FMAT,2
METRIC,TZ
T1C1.000
T2C4.000
%
G90
G05
M71
T1
X160.7Y-104.04
X160.7Y-106.58
X160.66Y-71.14
X160.66Y-73.68
X99.245Y-102.345
X101.785Y-104.885
X104.325Y-102.345
X104.325Y-104.885
X106.865Y-102.345
X106.865Y-104.885
X109.405Y-104.885
X111.945Y-102.345
X111.945Y-104.885
X114.485Y-102.345
X114.485Y-104.885
X117.025Y-102.345
X117.025Y-104.885
X119.565Y-102.345
X122.105Y-102.345
X124.645Y-102.345
X124.645Y-104.885
T2
X182.8Y-69.9
X88.8Y-69.9
X88.8Y-105.6
X182.8Y-105.6
T0
M30
